<svg id="图层_1" data-name="图层 1" xmlns="http://www.w3.org/2000/svg" viewBox="0 0 874.38977 230.87374"><defs><style>.cls-1,.cls-4{fill:#e2d5cb;}.cls-1,.cls-2{stroke:#231815;}.cls-1,.cls-2,.cls-4,.cls-5{stroke-miterlimit:10;}.cls-2{fill:#56341d;}.cls-3{fill:#fff;}.cls-4,.cls-5{stroke:#050505;}.cls-5{fill:#3c73a0;}</style></defs><path class="cls-1" d="M440.37207,163.34131h20.21777l23.39942,51.85351,23.21191-51.85351h20.03028v66.8291H514.03418l.56152-55.22266h-.1875l-24.71,55.22266H477.71777l-24.52246-55.22266h-.1875l.56153,55.22266H440.37207Z"/><path class="cls-1" d="M539.67578,162.21826h12.916v10.4834h-12.916Zm0,18.3457h12.916v49.60645h-12.916Z"/><path class="cls-1" d="M563.44824,162.21826h12.917v38.1875L599.2959,180.564h18.252l-22.93164,18.71875,24.89746,30.8877H602.10449L584.50781,207.52l-8.14258,6.64551v16.00488h-12.917Z"/><path class="cls-1" d="M622.78613,162.21826h12.916v10.4834h-12.916Zm0,18.3457h12.916v49.60645h-12.916Z"/><polygon class="cls-1" points="678.622 170.94 691.757 170.94 691.757 219.377 727.071 219.377 727.071 230.174 678.622 230.174 678.622 170.94"/><rect class="cls-1" x="732.87543" y="169.94478" width="11.44856" height="9.29126"/><rect class="cls-1" x="814.55217" y="169.94478" width="11.44856" height="9.29126"/><rect class="cls-1" x="832.03876" y="169.94478" width="11.44856" height="9.29126"/><rect class="cls-2" x="832.03876" y="220.88266" width="41.85101" height="9.29126"/><rect class="cls-1" x="732.87543" y="186.20478" width="11.44856" height="43.96915"/><path class="cls-1" d="M753.94511,186.20478h11.44856v6.63711h.16581c3.73338-4.72882,9.54086-7.79837,17.33865-7.79837,9.45766,0,18.66631,3.40117,18.66631,15.26455v29.86585H790.11588V203.95825c0-4.72825-1.57608-10.1209-11.03374-10.1209-5.97329,0-13.68847,3.31855-13.68847,12.693v23.64356H753.94511Z"/><rect class="cls-2" x="0.55154" y="163.41613" width="317.4831" height="66.95761"/><path class="cls-3" d="M46.73885,179.954a100.40277,100.40277,0,0,1-7.40224,7.76332v33.24991a2.11252,2.11252,0,0,1-.48144,1.41424,2.38534,2.38534,0,0,1-1.95588.84254,2.15356,2.15356,0,0,1-2.16651-1.2638,2.196,2.196,0,0,1-.21063-.993V192.14065a113.95118,113.95118,0,0,1-19.88976,13.87168,4.66551,4.66551,0,0,1-2.07624.75226,1.322,1.322,0,0,1-1.14344-.60181,1.76053,1.76053,0,0,1-.36108-1.02307,1.85594,1.85594,0,0,1,.72217-1.41425q.21-.14929,2.85859-1.71515a109.19233,109.19233,0,0,0,19.88976-15.647v-1.14343q0-2.16651,2.347-2.16651a2.56,2.56,0,0,1,.78235.15045q1.83667-1.986,2.61786-2.88868l-24.91485,1.38416a2.20343,2.20343,0,0,1-.90272-.12036,1.93224,1.93224,0,0,1-1.50452-1.986,1.87206,1.87206,0,0,1,2.04615-2.07624l44.5639-2.46741a2.38415,2.38415,0,0,1,.90271.12036,1.926,1.926,0,0,1,1.44434,1.986,1.863,1.863,0,0,1-1.986,2.07624Zm-2.4975,9.23775a5.89778,5.89778,0,0,1,2.4975,1.08326,142.79954,142.79954,0,0,1,15.16557,10.68209,3.38062,3.38062,0,0,1,1.41425,2.5276A2.37648,2.37648,0,0,1,62.5965,205.23a2.41444,2.41444,0,0,1-1.77534.72217,2.95848,2.95848,0,0,1-1.986-.78235c-.081-.06018-.46062-.42127-1.14344-1.08325a109.5599,109.5599,0,0,0-13.992-11.67508,2.04453,2.04453,0,0,1-1.08325-1.5948,1.74079,1.74079,0,0,1,.331-.993A1.544,1.544,0,0,1,44.24135,189.19179Z"/><path class="cls-3" d="M85.91657,212.873l-8.51559.84253v.39117q0,1.80543-2.01606,1.80543a2.03844,2.03844,0,0,1-1.655-.72217,1.70263,1.70263,0,0,1-.331-1.08326V176.22283a1.72151,1.72151,0,0,1,.63189-1.41425,2.00066,2.00066,0,0,1,1.324-.45136,1.88539,1.88539,0,0,1,1.986,1.29389l8.39522-1.17353a8.41909,8.41909,0,0,1,1.02308-.06018q3.1595,0,3.15949,4.0923v35.59695q0,1.80543-2.04615,1.80543-1.95471,0-1.95587-1.80543Zm0-26.75038V179.593q0-1.23255-1.05317-1.2337h-.24072l-7.2217.9328v7.67305Zm0,3.52058-8.51559.90271v7.55269l8.51559-.87262Zm0,11.16354-8.51559.87262v8.33505l8.51559-.84253Zm26.41938-4.6941,9.95992-.993h.27082q2.19776,0,2.1966,1.95588a1.90814,1.90814,0,0,1-1.95588,2.07624l-9.59884.9328.06018.27081a52.88783,52.88783,0,0,0,6.07826,14.92485q1.68392,2.68037,2.347,2.678.81245,0,1.86561-7.73323.30205-2.104,1.62488-2.10633a1.34641,1.34641,0,0,1,1.35407.81244,4.86762,4.86762,0,0,1,.21063,1.77534,35.41593,35.41593,0,0,1-1.20361,10.47146q-.96174,3.04145-3.009,3.03913-2.16651,0-5.05519-3.88166-5.68708-7.61057-8.54568-19.82958l-10.17056,1.02307V218.0485a46.02141,46.02141,0,0,0,7.76333-4.15248,3.37046,3.37046,0,0,1,1.80542-.69208,1.5156,1.5156,0,0,1,1.20362.57172,1.59708,1.59708,0,0,1,.36108,1.02307,2.12322,2.12322,0,0,1-.84253,1.5647,41.82213,41.82213,0,0,1-4.3932,3.12941q-6.16969,4.00317-7.79341,4.002-.90272,0-1.92579-1.324a4.29947,4.29947,0,0,1-.48145-2.43732V177.8778a1.65931,1.65931,0,0,1-1.89569-1.8957q0-1.6839,2.07624-1.8656l22.86871-2.01606a7.24788,7.24788,0,0,1,.87262-.06018q3.37128,0,3.37013,3.009a7.14223,7.14223,0,0,1-.12037,1.29389l-1.41425,7.19161a1.67,1.67,0,0,1,1.71516,1.89569q0,1.71516-2.04615,1.86561l-8.75631.75226Q111.49341,191.60018,112.336,196.11259Zm-13.57078-10.6821,17.302-1.53461,1.11334-6.61989a1.803,1.803,0,0,0,.06018-.42127c.03935-.6018-.31016-.90271-1.05316-.90271a2.20582,2.20582,0,0,0-.24072.03009l-17.18163,1.53461Zm9.29794,11.10336q-.72217-3.61085-1.2638-8.09432l-8.03414.69208v8.305Z"/><path class="cls-3" d="M165.8367,177.81762l17.633-1.41425a1.854,1.854,0,0,1,1.68506.6319,2.03467,2.03467,0,0,1,.45135,1.29388,1.74639,1.74639,0,0,1-.90271,1.5948,1.88682,1.88682,0,0,1-.9328.3009l-35.98813,2.8285q.14929,2.43732.15045,7.43233,0,15.61692-5.14546,25.66712a36.396,36.396,0,0,1-3.09931,5.11537,1.8803,1.8803,0,0,1-1.50452.87262,2.00665,2.00665,0,0,1-1.05317-.331,1.56959,1.56959,0,0,1-.75226-1.41425,4.54715,4.54715,0,0,1,.84254-1.95588q3.76014-5.89541,5.47645-16.36918-6.86061,5.41627-8.24477,5.41627a1.83218,1.83218,0,0,1-1.655-1.11334,2.47446,2.47446,0,0,1-.331-1.11335q0-1.2638,2.28687-2.40723a91.69343,91.69343,0,0,0,8.42532-5.08528q.30205-3.54835.3009-8.60586,0-1.50336-.09027-4.333l-.06018-1.47443a1.70357,1.70357,0,0,1-1.655-1.89569q0-1.71516,1.83551-1.86561L161.263,178.1787v-6.52962a1.87141,1.87141,0,0,1,.90272-1.68506,2.59093,2.59093,0,0,1,1.38415-.39117,2.37243,2.37243,0,0,1,1.655.6018,1.89867,1.89867,0,0,1,.6319,1.47443Zm-31.294,6.5898q.75342,0,3.37013,2.1966,4.392,3.67334,4.3932,5.29591a2.12571,2.12571,0,0,1-.6319,1.44434,1.99655,1.99655,0,0,1-1.53461.69208,2.866,2.866,0,0,1-2.25679-1.59479,45.94432,45.94432,0,0,0-4.15247-5.3561,1.96019,1.96019,0,0,1-.60181-1.29388,1.28647,1.28647,0,0,1,.331-.84254A1.367,1.367,0,0,1,134.54267,184.40742Zm35.35623,32.88882,15.94792-.60181q2.347-.09027,2.347,1.95587a1.90754,1.90754,0,0,1-2.13642,2.10633l-38.72636,1.29389-.15045.03009a2.25689,2.25689,0,0,1-1.14343-.24072,1.71458,1.71458,0,0,1-.993-1.68507q0-1.95471,2.10633-2.04614l6.2889-.21064V203.45465a1.88849,1.88849,0,0,1,2.10633-2.16651,1.928,1.928,0,0,1,2.1966,2.16651v14.29294l7.73323-.3009V192.6221l-12.09634.96289c-.18055.02083-.29165.03009-.331.03009a1.71559,1.71559,0,0,1-1.95588-1.92578q0-1.62489,1.92579-1.80543l27.59291-2.317a2.81938,2.81938,0,0,1,.3009-.03009q1.986,0,1.986,1.77533a1.88992,1.88992,0,0,1-1.95588,2.07624l-11.04318.87262V201.559l10.29092-.69208.30091-.03009a1.70517,1.70517,0,0,1,1.68506.78235,2.19518,2.19518,0,0,1,.36108,1.29389q0,1.77765-2.04614,1.8957l-10.59183.6018Z"/><path class="cls-3" d="M221.80486,182.39136a9.82844,9.82844,0,0,1,.662,4.0923q0,8.99934-7.04116,20.19066-5.23574,8.305-9.80947,8.305-3.21852,0-5.71718-3.27985-3.19074-4.15248-3.18958-10.83255,0-6.95088,5.35609-12.969a27.2917,27.2917,0,0,1,10.44137-7.25179,30.75844,30.75844,0,0,1,11.67508-2.28687,20.0798,20.0798,0,0,1,14.08231,5.11536,18.21862,18.21862,0,0,1,6.01808,14.11241,20.45821,20.45821,0,0,1-4.90473,13.631,23.47053,23.47053,0,0,1-9.38821,6.68007,4.56383,4.56383,0,0,1-1.68506.39118,1.58567,1.58567,0,0,1-1.38416-.6319,1.52638,1.52638,0,0,1-.331-.90271,1.79231,1.79231,0,0,1,.60181-1.2638,23.70507,23.70507,0,0,1,2.40723-1.47443,19.01131,19.01131,0,0,0,5.86763-5.17555,17.82387,17.82387,0,0,0,3.88167-11.16354,15.02488,15.02488,0,0,0-15.0753-15.3762l-2.28687.09027h-.18054Zm-4.0923.72217q-8.93685,2.46857-13.60086,9.05721a14.7657,14.7657,0,0,0-2.979,8.60586,14.19178,14.19178,0,0,0,2.04614,7.91378q1.29506,1.986,2.49751,1.986,2.19776,0,5.41627-4.93483a47.72742,47.72742,0,0,0,5.26582-10.92282,26.82272,26.82272,0,0,0,1.53461-8.335Q217.8931,185.4629,217.71256,183.11353Z"/><path class="cls-3" d="M261.55429,194.03635q1.80543,0,1.80542,2.10633a37.38712,37.38712,0,0,1-1.11334,7.13142,35.74641,35.74641,0,0,1-2.28687,7.40225,2.43534,2.43534,0,0,1-2.16651,1.59479,2.60008,2.60008,0,0,1-1.23371-.30091,2.00125,2.00125,0,0,1-1.08325-1.92578,6.807,6.807,0,0,1,.75226-2.49751,46.4635,46.4635,0,0,0,3.49048-11.34408Q260.07987,194.03635,261.55429,194.03635Zm7.79342-5.988a1.50122,1.50122,0,0,1,1.41425.84253,8.63181,8.63181,0,0,1,.51153,1.80542q2.22554,9.63125,8.03414,14.323,6.28774,5.08644,16.971,5.08528,2.55885,0,2.55769-1.2638,0-2.045-2.94886-7.13143a2.54228,2.54228,0,0,1-.45136-1.324,1.26181,1.26181,0,0,1,.72217-1.11335,1.48915,1.48915,0,0,1,.78235-.24072,2.28628,2.28628,0,0,1,1.655,1.02307q5.89889,7.19393,5.89772,10.59183,0,3.94414-8.12441,3.94184a32.99479,32.99479,0,0,1-16.39927-3.88166q-6.49953-3.61086-9.95993-11.73526a41.66848,41.66848,0,0,1-2.52759-8.27487,4.10873,4.10873,0,0,1-.12036-.84253Q267.36174,188.04837,269.34771,188.04836Zm9.47848-9.23776q.87145,0,1.68506,1.2638a18.62,18.62,0,0,0,4.15247,4.84455,2.45408,2.45408,0,0,0,1.23371.54163q.48261,0,1.2638-.84253a1.32405,1.32405,0,0,1,.96289-.48145q.993,0,.993,1.68507a9.36278,9.36278,0,0,1-.9629,4.002,1.98457,1.98457,0,0,1-1.83551,1.324,4.47943,4.47943,0,0,1-2.94886-1.35407,25.14937,25.14937,0,0,1-4.48347-5.68709,20.37311,20.37311,0,0,1-1.23371-2.317,4.37821,4.37821,0,0,1-.42127-1.59479,1.12888,1.12888,0,0,1,.27082-.78235A1.71779,1.71779,0,0,1,278.82619,178.8106Zm17.5427,1.23371a5.9624,5.9624,0,0,1,2.91877,1.5647,45.40685,45.40685,0,0,1,7.25179,6.80043,3.73292,3.73292,0,0,1,1.02308,2.317,2.00437,2.00437,0,0,1-.54163,1.38416,2.45119,2.45119,0,0,1-1.92579.90271,3.11369,3.11369,0,0,1-2.43732-1.655,52.429,52.429,0,0,0-6.981-8.06423,2.328,2.328,0,0,1-.84253-1.655,1.49961,1.49961,0,0,1,.42127-1.05316A1.45445,1.45445,0,0,1,296.36889,180.04431Z"/><path class="cls-4" d="M20.249,126.03564H.5V6.16406H19.33057L59.59375,71.0752h.91846L100.62256,6.16406h18.83056V126.03564H99.7041V44.59033h-.91846L66.94238,95.72314H53.01074L21.16748,44.74365H20.249Z"/><path class="cls-4" d="M160.55664,21.47363q-3.2937,3.21461-8.95557,3.21485-5.51146,0-8.6499-3.21485-3.13989-3.21532-3.13818-8.87939a12.22428,12.22428,0,0,1,3.13818-8.80274Q146.0874.50074,151.60107.5q5.66163,0,8.95557,3.2915a11.90034,11.90034,0,0,1,3.2915,8.80274Q163.84814,18.25952,160.55664,21.47363Zm.99512,18.21778v86.34423H142.10938V39.69141Z"/><path class="cls-4" d="M260.14209,126.03564h-24.648l-27.40332-36.8955-5.51172,5.3584v31.5371H183.13672V6.16406H202.5791V70.00391l28.62842-30.3125h26.791l-36.436,36.12988Z"/><path class="cls-4" d="M291.60156,21.47363q-3.2937,3.21461-8.95556,3.21485-5.51148,0-8.64991-3.21485-3.13989-3.21532-3.13818-8.87939a12.22428,12.22428,0,0,1,3.13818-8.80274Q277.13232.50074,282.646.5q5.66161,0,8.95556,3.2915a11.90034,11.90034,0,0,1,3.29151,8.80274Q294.89307,18.25952,291.60156,21.47363Zm.99512,18.21778v86.34423H273.1543V39.69141Z"/><path class="cls-4" d="M310.20117,55.76611h49.90821v18.3711H310.20117Z"/><path class="cls-5" d="M387.81787,120.9834a48.59523,48.59523,0,0,1-18.21826-19.749l17.45264-8.87891a29.20355,29.20355,0,0,0,11.32861,12.85937,31.96437,31.96437,0,0,0,16.6875,4.28662q10.10376,0,16.38086-4.36279,6.27538-4.36377,6.27637-11.25244a13.10419,13.10419,0,0,0-2.44922-8.0376q-2.45068-3.29-7.96094-5.81738a119.08424,119.08424,0,0,0-15.4624-5.43457,148.06168,148.06168,0,0,1-19.67237-6.813A35.69435,35.69435,0,0,1,378.86182,57.4502q-5.59058-6.88917-5.58789-18.3711a30.98107,30.98107,0,0,1,5.51123-18.06494,37.00451,37.00451,0,0,1,15.23291-12.477A51.56288,51.56288,0,0,1,415.98682,4.021q28.93432,0,42.10009,24.9541l-16.83984,9.33838q-9.03516-15.61524-25.56641-15.61524-9.186,0-15.53906,4.43946-6.35449,4.44213-6.35351,10.71679a12.88924,12.88924,0,0,0,2.98535,8.8794,22.32049,22.32049,0,0,0,8.34375,5.58789,130.99676,130.99676,0,0,0,14.8501,4.82226,133.36861,133.36861,0,0,1,19.519,6.8125,35.62148,35.62148,0,0,1,13.39551,10.64014q5.51073,7.043,5.51074,18.21777A32.31951,32.31951,0,0,1,452.958,111.4917a35.23774,35.23774,0,0,1-15.3086,12.32422,55.76833,55.76833,0,0,1-22.73437,4.3623Q399.6045,128.17822,387.81787,120.9834Z"/><path class="cls-5" d="M523.917,58.0625H500.34082v39.957q0,5.666,3.13672,8.80274,3.1377,3.13989,8.957,3.13867a31.22436,31.22436,0,0,0,9.64453-1.53076V126.648a44.34627,44.34627,0,0,1-14.084,2.14258q-13.16895,0-20.13282-7.34766-6.9668-7.34838-6.96582-20.97363V58.0625H467.4248V39.69141h13.47168V13.97217h19.44434V39.69141H523.917Z"/><path class="cls-5" d="M557.06055,21.47363q-3.29444,3.21461-8.95606,3.21485-5.5122,0-8.65039-3.21485-3.13916-3.21532-3.13769-8.87939A12.2261,12.2261,0,0,1,539.4541,3.7915Q542.59033.50074,548.10449.5q5.66163,0,8.95606,3.2915a11.902,11.902,0,0,1,3.291,8.80274Q560.35156,18.25952,557.06055,21.47363Zm.99511,18.21778v86.34423H538.6123V39.69141Z"/><path class="cls-5" d="M595.63867,122.59082a37.10017,37.10017,0,0,1-14.69726-15.84473q-5.1299-10.25536-5.12793-23.88281,0-13.77759,5.12793-24.03516a36.64357,36.64357,0,0,1,14.69726-15.76855q9.56543-5.51148,22.42774-5.51123a35.62691,35.62691,0,0,1,19.82519,6.04687,38.43164,38.43164,0,0,1,14.00879,16.15137l-17.14648,8.11377a21.58924,21.58924,0,0,0-7.57813-8.64941,18.86628,18.86628,0,0,0-10.4873-3.13867,18.44275,18.44275,0,0,0-15.23243,7.272q-5.74071,7.27295-5.74121,19.519,0,12.25048,5.74121,19.59619a18.21842,18.21842,0,0,0,15.08008,7.34815,18.89518,18.89518,0,0,0,10.5625-3.21485,21.94143,21.94143,0,0,0,7.65528-8.72607l17.14648,8.11377a38.417,38.417,0,0,1-14.00879,16.15137,35.62637,35.62637,0,0,1-19.82519,6.04638Q605.20654,128.17822,595.63867,122.59082Z"/><path class="cls-5" d="M744.21289,126.03564H719.56543l-27.40332-36.8955-5.51172,5.3584v31.5371H667.208V6.16406h19.44238V70.00391l28.62793-30.3125h26.792L705.63379,75.82129Z"/><path class="cls-5" d="M775.67285,21.47363q-3.29444,3.21461-8.95605,3.21485-5.51221,0-8.65039-3.21485-3.13917-3.21532-3.1377-8.87939a12.22606,12.22606,0,0,1,3.1377-8.80274Q761.20264.50074,766.7168.5q5.66161,0,8.95605,3.2915a11.902,11.902,0,0,1,3.291,8.80274Q778.96387,18.25952,775.67285,21.47363Zm.99512,18.21778v86.34423H757.22461V39.69141Z"/><path class="cls-5" d="M872.043,89.75244H814.63379q1.22315,10.259,6.88867,15.99854,5.66309,5.74071,15.15625,5.74072a20.10757,20.10757,0,0,0,10.94629-3.13818,24.05825,24.05825,0,0,0,8.19043-8.95606l15.76855,8.11377a36.61681,36.61681,0,0,1-13.77832,15.23291q-8.87988,5.43237-21.12695,5.43408-12.85986,0-22.42773-5.43408a36.23338,36.23338,0,0,1-14.69727-15.61572q-5.12988-10.17919-5.12793-23.80567,0-13.9292,4.97559-24.26513a36.81134,36.81134,0,0,1,14.16015-15.92139q9.186-5.58691,21.58692-5.58789A41.98545,41.98545,0,0,1,855.50879,42.294a32.48245,32.48245,0,0,1,13.39648,13.47216,42.54724,42.54724,0,0,1,4.66895,20.36133A55.07627,55.07627,0,0,1,872.043,89.75244ZM853.67188,73.21875q0-8.72607-5.05176-13.93164-5.05226-5.20239-13.47168-5.20508a17.76591,17.76591,0,0,0-13.01367,4.97559q-5.05079,4.9768-6.8887,14.16113Z"/></svg>